<svg xmlns="http://www.w3.org/2000/svg" width="922.701" height="600" viewBox="0 0 922.701 600"><path d="M0 0h922.701v600H0z" fill="#FEFEFE"/><path d="M602.929 239.707h21.969c-1.619 1.619-1.852 1.659-4.003 1.787l-1.535.104-1.632.092q-1.658.112-3.315.227l-1.64.112c-3.134.241-6.244.659-9.355 1.095v.976l-2.441.976q1.434.02 2.868.031l1.614.017a47 47 0 0 0 4.142-.291c2.37-.243 4.706-.314 7.087-.308l1.267-.003q2.046-.002 4.091.001l2.861-.001q2.984-.001 5.968.003 3.83.003 7.66-.002 2.948-.002 5.896 0l2.826-.001q1.967-.001 3.933.003l1.183-.003c2.682.011 2.682.011 3.77.555 1.448.134 2.89.243 4.34.334l2.701.182q2.12.139 4.241.276c4.846.316 9.634.676 14.436 1.424 3.029.421 6.077.585 9.127.775l1.953.128q2.349.153 4.699.299v.976h1.465v.976c-1.724.575-3.075.543-4.895.536l-1.052-.002q-1.129-.003-2.258-.009-1.785-.009-3.569-.012-3.786-.009-7.572-.025-4.391-.018-8.782-.027-1.762-.005-3.525-.016l-2.148-.005-1.902-.008c-1.351-.105-1.351-.105-1.89.544l1.75.059c5.918.229 11.735.803 17.601 1.611q2.095.285 4.192.559c4.911.657 9.763 1.458 14.615 2.466 3.073.636 6.143 1.125 9.259 1.5q1.36.168 2.719.342l1.16.141c.943.158.943.158 1.919.646v.976c-6.998.121-13.896.14-20.789-1.226-4.195-.799-8.283-.84-12.531-.787q-1.054.008-2.107.013-2.547.017-5.094.048v.976l1.862-.122c2.701-.008 5.24.486 7.872 1.037l1.244.257c1.846.404 3.045.69 4.645 1.757.97.293.97.293 2.031.488l1.174.244 2.445.488 1.172.244 1.072.214c.893.275.893.275 1.87 1.251-4.748.127-9.188-.229-13.883-.946-6.283-.905-12.483-1.371-18.827-1.495l2.441.976v.976l.976.488c-10.941.144-10.941.144-13.181-.976a71 71 0 0 0-2.872-.261l-1.726-.129-1.81-.129-1.821-.134q-2.233-.164-4.465-.323v1.465l1.556.183c1.597.262 2.84.617 4.302 1.282v.488c-12.955.097-12.955.097-18.642-.357a67 67 0 0 0-2.349-.131l-.488.488c-1.338.049-2.66.068-3.997.061l-1.119.006c-2.091-.004-4.053-.142-6.113-.555v.976l1.953.488v1.465c-2.72.398-5.282.504-8.025.427-2.786-.046-5.025.116-7.629 1.2-1.622.559-3.152.419-4.851.326v.976c-2.141 1.465-2.141 1.465-3.417 1.465v.976q-1.098.231-2.197.458l-1.35.282c-1.159.205-2.237.282-3.41.328-1.977.428-2.107.542-3.234 2.044-1.693 2.251-3.713 2.729-6.408 3.234l-1.678.092c-2.427.553-4.01 1.911-5.96 3.417-1.763 1.357-2.677 1.395-4.872 1.434-2.942.203-4.047 1.028-6.049 3.083-1.193.937-1.85.954-3.349.974-2.255.059-3.18.669-4.851 2.167-2.369 2.107-4.398 2.575-7.466 3.139-1.918.46-2.899 1.46-4.343 2.78q-1.423.695-2.868 1.343c-2.177 1.03-3.471 1.974-4.943 3.875-1.505 1.889-2.479 2.388-4.851 2.807-3.633.666-5.208 2.798-7.354 5.645l-.887 1.346c-1.445 1.483-2.412 1.446-4.453 1.583-2.633.233-4.774.716-7.232 1.77-2.563 1.083-4.48 1.294-7.233 1.154-2.303.011-3.982 1.112-5.948 2.243-2.291 1-4.417.871-6.886.887-1.632.127-1.632.127-2.394 1.524l-.606 1.211c-1.312.153-1.312.153-2.441 0v-1.465l-1.465.488-1.465 11.717c3.097 1.997 3.097 1.997 6.286 3.448 2.389.89 2.389.89 3.538 1.449 4.02 1.892 8.4 2.174 12.755 2.732 2.133.288 4.256.644 6.378 1.006l1.149.194 2.604.446v.976c-2.722 1.765-5.178 1.614-8.299 1.465l.976 3.417h-8.788l1.465 2.441v1.953l-1.02.021c-3.074.156-5.185.675-7.78 2.343-.976.573-1.811.835-2.916 1.053v.976c-1.794.574-3.5.524-5.37.488v-.976h-3.417v1.953h-.976l.122 1.495c-.15 2.363-.798 3.383-2.075 5.339h-.976v4.394l1.526.153c2.474.439 4.213 1.395 6.286 2.776v1.465l-12.205-.976-.488 1.953-1.465.488.153 1.312c-.155 1.619-.155 1.619-1.284 3.023-1.312 1.037-1.312 1.037-2.777 1.037l-.488-5.37h.976c-.329-2.411-.329-2.411-.824-4.79l-.152-1.068.976-.976a43 43 0 0 0-.183-3.723l-.084-1.045q-.105-1.278-.221-2.556c-2.612-.084-3.89.118-5.858 1.953-.522 1.445-.788 2.872-.976 4.394l1.953-.488v2.441l-1.953.488.092 1.556c-.099 2.002-.538 2.647-1.556 4.302-.245 1.527-.245 1.527 0 2.929 1.547 1.031 2.762 1.378 4.547 1.862 2.665.788 4.223 1.59 6.194 3.509l1.465.488.488 2.441c-2.584-.469-5.066-1.239-7.58-1.983a39 39 0 0 0-4.625-.946v1.465h-.976l-.488 1.953-2.441.488-.976-1.953c-5.061 1.339-5.061 1.339-8.788 4.394h-1.465c.217-2.462 1.274-3.634 2.929-5.37h.976l.366-.824c.609-1.13.609-1.13 1.646-2.136 1.386-2.172 1.074-4.296.915-6.805l-.925-.398c-1.287-.724-1.675-1.557-2.202-2.912-.565-2.11-.664-4.28-.778-6.454l-1.831.153c-1.098.007-1.098.007-2.075-.153l-.854-1.19c-.973-1.375-.973-1.375-2.431-1.47a73 73 0 0 0-3.074-.105c-1.667-.188-2.506-.711-3.892-1.629a52 52 0 0 0-8.299-2.929l-.488-2.441c-1.174-.265-2.309-.481-3.513-.543-3.045-.176-3.045-.176-4.573-1.593-.703-1.281-.703-1.281-.703-2.746l2.441-.976v-1.465l-1.179.013c-4.175-.117-4.175-.117-5.721-1.295-.705-.845-1.325-1.678-1.888-2.624 1.577-.526 2.826-.574 4.486-.641 3.476-.218 6.662-.961 10.014-1.879 1.611-.409 1.611-.409 3.075-.409v-.976l.82-.253q1.848-.573 3.696-1.15l1.291-.398 1.249-.391 1.147-.356c1.086-.356 1.086-.356 2.097-.914.929-.444.929-.444 2.394-.444v-1.465l.976-.488c.053-1.098.091-2.197.122-3.295l.068-1.854c-.225-1.989-.673-2.366-2.143-3.639-.624-1.276-1.014-2.552-1.465-3.906l-1.337-.072-1.745-.111-1.734-.103c-1.53-.201-1.53-.201-2.995-1.177-2.903-1.074-5.702-1.529-8.788-1.648-2.836-.157-4.821-.745-7.331-2.037-1.443-.703-2.88-1.245-4.391-1.779-3.895-1.376-7.669-2.763-10.308-6.101-1.257-1.551-2.472-1.914-4.333-2.594v-.976l-1.076-.386c-1.402-.607-2.463-1.325-3.684-2.238-1.907-1.373-3.736-2.389-5.929-3.225-1.027-.497-1.027-.497-2.152-1.454-1.575-1.192-2.996-1.628-4.886-2.186-2.971-.919-5.892-1.925-8.147-4.18l-1.922-.061c-2.614-.244-4.06-1.476-6.097-3.036-1.924-1.238-3.891-1.551-6.139-1.785v-.976l-1.037-.122c-2.147-.56-3.751-1.738-5.309-3.295a43 43 0 0 0-2.654-.366c-2.847-.426-4.885-1.38-7.346-2.832-1.652-.952-3.335-1.564-5.134-2.172-5.011-1.766-5.011-1.766-6.896-2.746-1.519-.727-2.909-1.046-4.558-1.343-1.24-.306-1.24-.306-2.922-1.048-2.845-1.094-5.803-1-8.814-1.058l-1.781-.05q-2.16-.06-4.322-.102l.488-1.465h1.465v-1.465l-1.837.124-2.405.15-1.208.083c-2.041.124-3.776.112-5.779-.357q-1.433-.065-2.868-.061l-1.461-.004c-1.536.036-1.536.036-3.061.311-2.577.331-5.119.293-7.714.272l-1.576-.006a1109 1109 0 0 1-3.824-.024l.488-1.465 2.441-.488v-.976c-2.021-.103-2.021-.103-3.906.488a120 120 0 0 1-3.845.244c-2.024.098-3.956.205-5.919.732a86 86 0 0 1-11.229.488v-.976a740 740 0 0 1 3.997-1.221l1.138-.353c1.917-.576 3.579-1.03 5.606-.868v-.976l-1.489.179a715 715 0 0 1-11.479 1.286c-7.646.772-7.646.772-15.226 2.014-4.218.75-8.549.503-12.815.427l.488-.976c1.457-.416 1.457-.416 3.295-.793l1.823-.386c1.435-.239 2.71-.347 4.158-.286v-.976l1.113-.208c1.654-.312 3.306-.632 4.959-.951l1.751-.328 1.664-.324 1.542-.294 1.177-.336.488-.976c-11.86-.131-11.86-.131-23.434 1.953a97 97 0 0 1-4.119.092l-1.13.018c-3.38.009-3.38.009-5.003-1.086 2.204-1.102 3.953-1.622 6.408-1.892a94 94 0 0 0 8.055-1.282c3.65-.74 7.309-1.077 11.021-1.35a45 45 0 0 0 7.119-1.101c1.88-.406 3.778-.576 5.69-.753l1.261-.122c4.221-.393 8.448-.63 12.683-.824l.488-.976q-3.647-.018-7.294-.027l-2.478-.01q-1.788-.009-3.578-.011l-1.103-.007c-1.738 0-3.42.068-5.143.298a38 38 0 0 1-5.03.31l-1.717.002-1.759-.006-1.765.006c-2.787-.003-5.469-.047-8.213-.555v-.976c3.755-.91 7.52-1.46 11.351-1.953l.993-.129a229 229 0 0 1 16.304-1.49c2.666-.154 5.304-.356 7.954-.696 5.306-.663 10.551-.758 15.892-.745l2.815-.002q2.928-.002 5.856.005c2.473.006 4.945.002 7.418-.003q2.9-.004 5.8 0 1.366.001 2.731-.002c6.25-.012 12.367.38 18.575 1.11-1.92-2.007-3.596-2.125-6.286-2.41-6.098-.685-12.1-1.813-18.124-2.96v-.976q3.556-.018 7.113-.027l2.416-.01q1.743-.008 3.487-.011l1.079-.007c2.178 0 4.26.15 6.41.543l.488.488c.766.174 1.537.323 2.309.461l1.503.276 1.65.3c7.349 1.375 14.611 3.067 21.877 4.821l1.439.344a235 235 0 0 1 14.51 3.944c1.858.571 3.712 1.129 5.597 1.605 15.749 3.995 30.579 11.012 44.483 19.296 13.501 8.037 27.438 15.288 42.839 18.748l1.158.284c6.548 1.041 12.767.285 18.859-2.237l1.112-.46c5.198-2.193 10.246-4.694 15.279-7.24a405 405 0 0 1 9.759-4.749 249 249 0 0 0 10.679-5.37 229 229 0 0 1 11.411-5.645l1.474-.688c2.026-.925 3.947-1.769 6.129-2.239 1.923-.501 2.683-1.18 4.205-2.412 1.922-1.061 3.925-1.952 5.919-2.868l.889-.411c7.852-3.619 15.881-6.801 23.949-9.903l1.613-.623c8.277-3.166 8.277-3.166 12.833-3.2 1.192-.019 1.192-.019 2.263-.545 1.571-.596 3.01-.799 4.677-1.002l1.932-.244 2.008-.244q1.966-.24 3.932-.488l1.758-.213c1.759-.285 3.403-.753 5.111-1.251q1.933-.202 3.875-.305l1.012-.057q1.218-.067 2.436-.126z" fill="#060606"/><path d="M231.234 325.653c4.693 4.08 7.934 8.563 9.449 14.623 1.135-1.135 1.323-1.898 1.8-3.417 2.112-5.927 6.382-10.754 11.991-13.639a45 45 0 0 1 2.32-1.007l1.341-.543c2.001-.545 3.828-.58 5.891-.555l1.187.011c7.25.132 12.384 2.691 17.456 7.922 5.312 6.064 6.289 12.409 5.951 20.253-.457 6.034-3.492 11.215-7.813 15.325-2.282 1.945-4.656 3.3-7.414 4.455l-1.266.532c-5.473 2.07-11.947 1.009-17.23-1.093-6.358-3.139-10.184-8.145-12.749-14.574a75 75 0 0 1-.976-3.417h-.488l-.307 1.2c-1.863 6.698-5.16 12.066-11.257 15.691a52 52 0 0 1-3.571 1.66l-1.266.532c-5.473 2.07-11.947 1.009-17.23-1.093-4.453-2.198-8.396-5.814-10.796-10.18l-.414 1.285c-1.194 3.434-2.153 6.187-5.444 7.99-8.789 3.79-18.316 1.953-27.827 1.953v-47.844c21.682 0 21.682 0 26.607 2.99 3.096 3.56 3.469 7.286 3.33 11.902-.33 3.596-1.635 5.918-4.062 8.542l1.373.397c1.484.553 1.996.921 3.021 2.044l.021-1.379c.293-7.841 2.931-14.057 8.675-19.523 8.247-7.083 20.982-7.792 29.698-1.045" fill="#090909"/><path d="M275.254 328.01c4.303 3.081 8.229 7.465 9.367 12.754.653 6.384.337 12.139-3.539 17.453-3.148 3.752-6.711 6.865-11.595 7.933-6.773.588-12.169.059-17.527-4.411-4.359-4.083-6.9-8.993-7.147-15.008-.054-5.816 1.258-10.331 5.146-14.755l.742-.896c6.234-6.947 16.809-8.012 24.553-3.07m-46.989.325c2.855 2.034 4.796 4.541 6.56 7.548l.644 1.072c2.361 4.739 2.019 11.346.546 16.321-1.084 2.727-2.607 4.886-4.608 7.018l-.883.944c-4.268 4.126-9.027 5.263-14.802 5.169-5.665-.249-9.651-2.561-13.578-6.599-4.393-5.171-5.551-10.96-5.03-17.556.485-4.063 2.343-7.248 5.001-10.273l.742-.896c6.708-7.475 17.222-7.662 25.407-2.746" fill="#FDFDFD"/><path d="m588.315 322.165 3.385.048c2.893 5.628 5.509 11.343 8.025 17.148a5047 5047 0 0 0 2.885 6.615 996 996 0 0 0 4.199 9.459l.586 1.303q1.392 3.095 2.793 6.186l.998 2.216.466 1.022c1.041 2.319 1.041 2.319 1.041 3.407h-4.394l-5.858-13.181h-25.875c-1.747 3.994-1.747 3.994-3.491 7.989l-.657 1.498-.674 1.542c-.548 1.175-.548 1.175-1.036 1.663-1.303.069-2.599.021-3.906 0a80 80 0 0 1 3.31-8.677l.542-1.222q.879-1.977 1.762-3.953l1.229-2.765 1.918-4.314a2736 2736 0 0 0 4.638-10.488l1.284-2.917 1.861-4.231q.859-1.955 1.721-3.91l.518-1.181c1.411-3.194 1.411-3.194 2.73-3.256m-215.785 0 3.385.047c2.893 5.628 5.509 11.343 8.025 17.148q1.147 2.635 2.298 5.269l.587 1.346a971 971 0 0 0 4.2 9.459l.586 1.303q1.392 3.095 2.793 6.186l.998 2.216.466 1.022c1.04 2.319 1.04 2.319 1.04 3.407h-4.394l-5.858-13.181h-25.875c-1.747 3.994-1.747 3.994-3.491 7.989l-.657 1.498-.674 1.542c-.548 1.175-.548 1.175-1.036 1.663-1.303.069-2.599.021-3.906 0a80 80 0 0 1 3.31-8.677l.542-1.222q.879-1.977 1.762-3.953l1.229-2.765 1.918-4.314a2736 2736 0 0 0 4.638-10.488l1.284-2.917 1.861-4.231q.859-1.955 1.721-3.91l.518-1.181c1.411-3.194 1.411-3.194 2.73-3.256" fill="#080808"/><path d="M708.869 321.725h33.198v3.906h-28.804v18.063h25.875v3.906h-25.875v18.063h29.78v3.906h-34.174z" fill="#171717"/><path d="M557.339 323.868c2.295 1.429 3.956 3.01 5.557 5.18-.854 1.007-.854 1.007-1.953 1.953-1.606-.17-2.487-.833-3.692-1.861-5.022-3.803-10.709-4.199-16.813-3.509-1.674.421-2.976.978-4.394 1.953l-1.434.976c-1.552 1.505-2.132 2.88-2.197 5.035.079 2.527.829 3.985 2.654 5.706 3.31 2.076 6.811 3.058 10.588 3.906 3.44.818 6.861 1.64 10.221 2.746l1.636.538c3.402 1.433 5.961 3.523 7.487 6.937.845 3.763.252 7.095-1.781 10.352-2.966 3.791-7.446 5.679-12.041 6.766-7.691.655-14.089-.91-20.504-5.37-1.082-.928-1.986-1.855-2.929-2.929.68-1.698 1.285-2.187 2.929-2.929l.789.662c5.958 4.835 11.553 6.726 19.227 6.173 3.481-.604 6.837-1.844 8.942-4.811 1.192-2.147 1.677-3.94 1.31-6.417-1.114-2.469-2.491-3.465-4.918-4.43-2.109-.667-4.252-1.155-6.408-1.639-15.653-3.528-15.653-3.528-20.407-10.041-1.562-2.54-1.311-5.571-.766-8.421 1.073-3.39 3.525-5.722 6.625-7.353 6.83-3.253 15.676-2.673 22.27.831m-238.053.721c1.783 1.287 3.091 2.69 4.394 4.455l-2.441 1.953c-1.831-.86-3.392-1.972-5.025-3.156-3.323-1.884-6.568-2.475-10.353-2.427l-1.231.009c-2.943.075-5.329.459-7.8 2.157l-1.434.976c-1.552 1.505-2.132 2.88-2.197 5.035.079 2.535.835 3.972 2.654 5.706 4.464 3 10.065 3.91 15.202 5.187q1.793.452 3.583.915l1.09.262c3.963 1.029 7.072 2.95 9.416 6.328 1.46 3.268 1.265 6.335.042 9.634-2.037 4.251-5.551 6.237-9.806 7.941-5.891 1.996-12.396 1.482-18.063-.976-3.397-1.682-6.28-3.491-8.788-6.347.68-1.698 1.285-2.187 2.929-2.929l.789.662c5.89 4.778 11.183 6.619 18.739 6.173 3.208-.387 6.772-1.748 8.994-4.177 1.583-2.305 1.981-4.29 1.747-7.052-1.114-2.469-2.491-3.465-4.918-4.43-2.109-.667-4.252-1.155-6.408-1.639-15.653-3.528-15.653-3.528-20.407-10.041-1.562-2.54-1.311-5.571-.766-8.421 1.042-3.295 3.464-5.564 6.351-7.353 7.299-3.457 16.925-2.669 23.708 1.556" fill="#050505"/><path d="M616.11 321.725h4.394l.002 1.305q.013 6.108.062 12.217.027 3.14.031 6.279.004 3.035.038 6.068.01 1.153.006 2.307c-.011 4.785.24 8.531 3.579 12.246 2.83 2.839 6.774 4.09 10.715 4.218 4.567-.202 8.421-1.658 11.93-4.608 2.329-2.866 3.045-5.633 3.085-9.283l.015-.997q.02-1.616.032-3.233l.029-2.253q.035-2.954.062-5.909.03-3.018.069-6.038.07-5.916.126-11.831h3.906q.034 6.499.051 12.999.007 3.018.023 6.037.016 2.915.019 5.831.002 1.11.01 2.219.01 1.56.008 3.12l.007 1.791c-.311 4.469-2.134 8.553-5.4 11.616-4.536 3.471-10.018 5.277-15.71 4.72-5.415-.802-9.574-2.626-13.181-6.835-3.744-5.089-4.115-9.973-4.049-16.097q.004-1.123.006-2.247c.005-1.958.02-3.915.036-5.873.015-2.003.021-4.006.029-6.009q.024-5.88.071-11.76" fill="#0D0D0D"/><path d="M166.477 347.6c2.719-.045 5.437-.084 8.155-.107q1.386-.015 2.772-.04a349 349 0 0 1 3.995-.043l1.241-.03c3.219-.001 5.12.837 7.65 2.872 1.94 2.418 1.897 4.919 1.775 7.933-.283 2.265-.674 3.292-2.155 5.038-2.765 1.954-4.793 2.224-8.13 2.143l-1.332-.008a414 414 0 0 1-4.178-.06q-1.423-.015-2.846-.027c-2.317-.02-4.632-.058-6.948-.095z" fill="#FAFAFA"/><path d="M701.057 326.119c1.159 1.085 1.159 1.085 1.953 1.953-.68 1.698-1.285 2.187-2.929 2.929l-.665-.555c-5.507-4.382-10.919-5.803-17.886-5.303-5.932 1.064-10.912 4.106-14.4 9.056-3.449 5.616-4.194 11.236-2.777 17.644 1.911 5.641 6.091 10.045 11.318 12.844 2.996 1.267 5.731 1.72 8.971 1.678l1.228-.011c4.836-.129 8.396-1.603 12.272-4.465 1.004-.646 1.729-.98 2.916-1.108 1.098.946 1.098.946 1.953 1.953-.861 2.583-3.569 3.598-5.858 4.882-1.599.752-3.212 1.377-4.882 1.953l-1.617.61c-6.699 1.362-14.212-.073-20.064-3.602-5.849-4.225-9.763-9.846-11.028-17.024-.134-1.367-.164-2.716-.152-4.089l.007-1.099c.15-7.057 3.431-12.447 8.445-17.269 9.728-8.117 22.809-7.686 33.198-.976" fill="#060606"/><path d="m166.965 326.119 8.116-.122 2.545-.054q1.011-.009 2.021-.015l1.04-.031c2.501-.001 3.879.608 5.806 2.174 1.845 2.191 2.22 3.749 2.197 6.591l.015 1.877c-.379 2.612-1.533 4.102-3.463 5.843-2.038 1.411-3.829 1.378-6.215 1.36l-1.911-.004-2.431-.014-7.72-.03z" fill="#FDFDFD"/><path d="M324.166 322.213h36.127v3.417h-16.111v43.938h-3.906V325.63h-16.111z" fill="#070707"/><path d="M589.259 327.095c1.233.616 1.324 1.064 1.871 2.311l.518 1.172.553 1.277.576 1.313q.605 1.38 1.206 2.763.912 2.097 1.835 4.191l1.174 2.687.55 1.253.523 1.208.454 1.044c.731 1.865 1.334 3.778 1.968 5.679h-21.969c1.648-4.943 1.648-4.943 2.378-6.565l.493-1.105.518-1.142.545-1.215q.853-1.899 1.711-3.795l1.155-2.571q1.055-2.35 2.115-4.696l.427-.946c.448-.964.92-1.914 1.399-2.862m-215.785 0c1.233.616 1.324 1.064 1.871 2.311l.518 1.172.553 1.277.576 1.313q.605 1.38 1.206 2.763.912 2.097 1.835 4.191l1.174 2.687.55 1.253.523 1.208.454 1.044c.731 1.865 1.334 3.778 1.968 5.679h-21.969c1.648-4.943 1.648-4.943 2.378-6.565l.493-1.105.518-1.142.545-1.215q.853-1.899 1.711-3.795l1.155-2.571q1.055-2.35 2.115-4.696l.427-.946c.448-.964.92-1.914 1.399-2.862" fill="#FAFAFA"/><path d="M462.815 361.269c.973.973.731 2.785.824 4.119l.088 1.027c.062.887.067 1.777.064 2.665l-.976.976c.14.818.308 1.631.488 2.441a95 95 0 0 1 0 3.417h-.976l.244.763c.317 1.548.274 3.032.244 4.607l.976.488c-2.309.543-3.754.395-5.98-.396l-1.533-.529c-1.274-.538-1.274-.538-2.251-1.514-.261-2.348.268-3.407 1.465-5.37.352-1.804.352-1.804.488-3.417l1.465-.488.488-2.441-1.953.488c-.057-3.734-.057-3.734 1.179-5.229 1.843-1.405 3.297-1.943 5.656-1.606" fill="#F6F6F6"/><path d="m692.209 254.78 1.516.257c2.296.394 4.583.811 6.864 1.285 3.142.64 6.317 1.015 9.496 1.42l1.392.182 1.254.16c1.02.175 1.02.175 1.996.663v.976c-6.998.121-13.896.14-20.789-1.226-4.195-.799-8.283-.84-12.531-.787q-1.054.008-2.107.013-2.547.017-5.094.048v.488h-2.441l.488-1.465 9.764-.488-1.953-.488v-.976c3.835-1.918 8.115-.77 12.144-.061" fill="#181818"/><path d="M236.29 257.282v.976l-.976.488-.488 1.465h9.764l-.488.976c-1.222.309-1.222.309-2.715.549l-1.497.248-1.159.18.488-1.465c-11.86-.131-11.86-.131-23.434 1.953a97 97 0 0 1-4.119.092l-1.13.018c-3.38.009-3.38.009-5.003-1.086 2.204-1.102 3.953-1.621 6.408-1.892a110 110 0 0 0 8.452-1.312c5.375-1.036 10.437-1.251 15.897-1.19" fill="#141414"/><path d="M644.426 262.652q3.142.102 6.286.214l1.81.058 1.726.062 1.596.054c1.275.101 1.275.101 2.252.589 4.251.617 8.995 1.085 13.181 0 1.098.214 1.098.214 1.953.488v1.465c-7.189.201-14.319-.409-21.481-.976l.488 2.441c-7.881.111-15.611.033-23.434-.976l.488-.976 1.386.107c6.373.45 12.732.427 19.118.381l-5.37-1.465z" fill="#B5B5B5"/><path d="M615.134 241.66v.488c-2.495.754-4.973 1.31-7.536 1.77l-3.693.671 1.31-.105c5.949-.429 11.875-.446 17.836-.431l3.217.002q4.194.003 8.388.012 4.296.007 8.592.01 8.4.008 16.799.024v.976l1.392-.017 1.842-.013 1.82-.018c1.623.044 3.119.225 4.71.536v.488q-2.894-.086-5.787-.182l-2.938-.09-1.86-.062-1.72-.054c-1.363-.1-1.363-.1-2.339-.588a103 103 0 0 0-3.977-.063l-1.247-.002q-2.049-.002-4.098.001l-2.85-.001q-2.995-.001-5.989.003-3.823.003-7.646-.002-2.947-.002-5.896 0l-2.817-.001q-1.98-.001-3.96.003l-1.159-.003c-2.39.009-4.728.176-7.102.445-1.616.16-3.201.156-4.825.14l-1.789-.013-1.324-.019c.641-.732.641-.732 1.465-1.465h1.465v-.976q1.829-.372 3.662-.732l1.03-.212c2.382-.463 4.597-.586 7.025-.52" fill="#7F7F7F"/><path d="M291.456 242.148q3.556-.018 7.113-.027l2.416-.01q1.743-.008 3.487-.011l1.079-.007c2.187 0 4.252.186 6.41.543v.488l-3.417.488 3.906 1.953v.488q-1.099.039-2.197.061l-1.236.034c-1.484-.098-2.817-.426-4.251-.808-2.091-.498-4.224-.743-6.352-1.026l-2.708-.368-1.195-.16a30 30 0 0 1-3.054-.662z" fill="#434343"/><path d="m687.876 248.006 9.764.488v.976h1.465v.976c-1.724.575-3.075.543-4.895.536l-1.052-.002q-1.129-.003-2.258-.009-1.785-.009-3.569-.012-3.786-.009-7.572-.025-4.391-.018-8.782-.027-1.762-.005-3.525-.016l-2.148-.005-1.902-.008c-1.351-.105-1.351-.105-1.89.544l.842.037q1.913.086 3.827.176l1.324.059c2.426.115 4.791.313 7.189.704v.488q-3.341-.103-6.682-.213l-1.914-.059-1.845-.062-1.697-.054a24.4 24.4 0 0 1-3.972-.586l.976-1.953c12.541-.062 25.057.055 37.592.488v-.976l-9.276-.976z" fill="#6B6B6B"/><path d="m603.417 244.101-2.441.976q1.434.02 2.868.031l1.614.017a47 47 0 0 0 4.141-.291c2.377-.244 4.716-.311 7.103-.3h1.272q2.052.001 4.105.008l2.869.002q3.753.003 7.507.012 3.839.007 7.678.01 7.516.008 15.033.024v.488l-1.547.012q-7.281.057-14.561.128-3.742.037-7.483.065-3.622.028-7.246.066-1.369.014-2.739.022c-5.568.037-11.031.328-16.565.958-2.491.274-4.965.316-7.468.212l.488-2.441c3.627-.628 3.627-.628 5.37 0" fill="#2F2F2F"/><path d="M688.364 260.7c3.144.326 6.146.961 9.215 1.709l1.404.334c3.406.82 3.406.82 4.516 1.375v.976c-7.67.181-15.024-.123-22.609-1.274-2.131-.309-4.268-.541-6.409-.77l-1.139-.124q-1.277-.138-2.553-.273v-.488c5.024-.128 9.76.217 14.738.976 4.402.665 8.633 1.125 13.09.976l-1.871-.376-2.431-.509-1.233-.245-1.187-.253-1.092-.225c-1.123-.399-1.665-.918-2.438-1.81" fill="#969696"/><path d="M673.718 257.282c16.838-.303 16.838-.303 24.41 1.465v.488c-3.571.062-3.571.062-5.233-.244-1.993-.304-3.922-.297-5.935-.274l-1.159.006q-1.404.01-2.807.024l4.882 1.465c-2.143.536-3.074.328-5.187-.183-2.832-.649-5.586-1.088-8.483-1.282z" fill="#A2A2A2"/><path d="M619.04 241.66v.488l-5.37.976 25.875.488v.488l-1.001.015q-5.216.081-10.433.166-1.939.032-3.879.061c-6.949.106-13.882.219-20.814.734l.488-.976a55 55 0 0 1 3.723-.732c2.012-.337 3.954-.693 5.917-1.262 1.951-.548 3.483-.517 5.494-.446" fill="#CCC"/><path d="M602.929 240.195v.488l-1.482.179-1.966.248-.972.116-.968.124-.875.108c-1.163.202-1.163.202-2.674.678-1.765.489-3.439.767-5.255.988l-1.936.244q-1.503.185-3.005.366-1.466.18-2.932.366l-1.755.214c-1.465.256-2.648.668-4.008 1.251-1.093.095-1.093.095-2.105.061l-1.8-.061v-.488c4.494-1.039 8.96-2.038 13.531-2.685 1.878-.286 3.737-.644 5.601-1.007 4.226-.81 8.299-1.27 12.601-1.19" fill="#A0A0A0"/><path d="m523.84 305.614.976.488-.892.982-1.182 1.306-1.167 1.287c-1.17 1.269-1.17 1.269-2.062 2.659-1.425 1.487-2.401 1.44-4.43 1.577-2.62.231-4.731.706-7.171 1.77-3.198 1.355-6.028 1.412-9.459 1.159l.488-.976a50 50 0 0 1 3.631-.244c2.57.054 2.57.054 4.668-1.221 1.163-.309 1.163-.309 2.502-.549l1.346-.248 1.035-.179v-.976l.986.065c4.009-.011 5.867-1.479 8.673-4.241 1.129-1.188 1.129-1.188 2.058-2.658" fill="#7F7F7F"/><path d="m424.735 354.923-.274 1.373c-.332 1.562-.332 1.562.274 3.021l2.929.488.488 1.465c-1.655-.276-2.904-.72-4.394-1.465a125 125 0 0 0-3.417-.976l-.488-2.441-2.441-.488v-.488c2.453-.305 4.845-.552 7.323-.488" fill="#3B3B3B"/><path d="m617.575 265.582 9.276.488v.488h-6.835v2.441c-1.872.311-3.68.519-5.578.557-5.209.107-9.75.81-14.716 2.392-1.675.469-1.675.469-2.651-.02l1.953-.488v-.976l.948-.179 1.28-.248 1.253-.24c1.431-.286 1.431-.286 2.881-.828 2.679-.783 5.49-.559 8.254-.518l1.717.013q2.086.018 4.172.048v-1.465l-1.953-.488z" fill="#A0A0A0"/><path d="m618.368 238.7 2.332.006q2.831.008 5.662.024v1.953l-2.929.488.976-.976-19.528-.488v-.488c4.502-.573 8.958-.544 13.487-.518" fill="#C3C3C3"/><path d="M656.631 259.235q1.388.085 2.777.183l1.562.103c1.485.198 2.592.595 3.961 1.179 1.136.186 2.275.354 3.417.488l-1.465.976 2.441.976c-1.59.534-2.397.444-3.936-.183-2.213-.811-4.273-1.02-6.618-1.131-1.162-.15-1.162-.15-2.627-1.126z" fill="#242424"/><path d="m665.135 250.4 1.855.005 1.938.012 1.956.007q2.394.009 4.788.024l-1.953.976 4.882.976v.488c-1.866.033-3.586.049-5.435-.233-2.746-.371-5.495-.427-8.262-.508l-1.279-.051-1.158-.037c-.954-.147-.954-.147-1.93-1.123 1.639-.547 2.872-.544 4.598-.536" fill="#CACACA"/><path d="M442.311 291.456c2.325-.075 4.348-.028 6.621.473 2.853.597 5.667.72 8.574.808l1.556.057q1.876.068 3.753.126c-2.151 1.209-3.987 1.163-6.408 1.159l-1.294.002c-4.423-.07-8.55-.987-12.803-2.138z" fill="#CBCBCB"/><path d="M311.961 242.636c2.782-.069 5.325.154 8.055.671l1.047.187c2.364.432 4.682.98 7.008 1.583v1.465q-1.749-.311-3.496-.633-1.563-.287-3.127-.565a936 936 0 0 1-4.179-.754l-1.404-.246-1.315-.243-1.19-.213-.911-.275z" fill="silver"/><path d="M646.867 244.101h13.181v.976l1.392-.017 1.842-.013 1.82-.018c1.623.044 3.119.225 4.71.536v.488q-2.894-.086-5.787-.182l-2.938-.09-1.86-.062-1.72-.054c-1.364-.1-1.364-.1-2.34-.588a132 132 0 0 0-4.211-.274l-1.186-.064q-1.451-.078-2.902-.15z" fill="#9F9F9F"/><path d="M693.246 254.841c3.347-.121 6.471.341 9.764.915l1.541.257c2.778.474 5.5 1.03 8.223 1.757v.488c-6.571.253-13.124-1.624-19.528-2.929z" fill="#9D9D9D"/><path d="m585.842 274.857.976.488c-1.826 2.71-3.458 3.854-6.621 4.659-1.19.223-1.19.223-2.869.314-2.824.644-4.87 2.525-7.109 4.303l-.976-.488a769 769 0 0 1 2.838-2.166l.809-.623c2.045-1.549 3.414-2.16 5.964-2.124l1.196.014.91.017.488-1.465 1.404-.457c1.659-.564 2.109-1.002 2.99-2.472" fill="#616161"/><path d="M462.815 361.269v.488c-1.616.551-3.217 1.08-4.882 1.465l-.488 3.417h.976c.21 3.039-.003 4.471-1.953 6.835h-.488v-2.929l1.465-.488.488-2.441-1.953.488c-.057-3.734-.057-3.734 1.179-5.229 1.857-1.416 3.28-1.896 5.656-1.606" fill="#B4B4B4"/><path d="M644.426 262.652q3.143.082 6.286.183l1.81.046 1.726.057 1.596.046c1.275.157 1.275.157 2.252 1.133h-9.764l1.465.976c-3.627-.488-3.627-.488-5.37-.976z" fill="#606060"/><path d="M240.683 252.888q3.166-.018 6.332-.027l2.152-.01q1.551-.009 3.101-.011l1.883-.008c1.44.048 2.71.207 4.107.544l-.488 1.465h-4.882l.488-.976-12.693-.488z" fill="#959595"/><path d="M602.929 239.707h21.969c-1.465 1.465-1.465 1.465-2.569 1.608l-1.184-.052-1.196-.04-.909-.051v-.488l-16.111-.488z" fill="#333"/><path d="m257.282 265.093-4.882 1.465 5.858.488v.488c-3.752.33-7.462.565-11.229.488v-.976q2.011-.634 4.028-1.251l1.15-.366 1.116-.338 1.022-.317c.984-.169.984-.169 2.937.319" fill="#4F4F4F"/><path d="M659.56 249.959h6.347v.488l-3.003.334c-.908.066-.908.066-1.39.642l.842.037q1.913.086 3.827.176l1.324.059c2.426.115 4.791.313 7.189.704v.488q-3.341-.103-6.682-.213l-1.914-.059-1.845-.062-1.697-.054a24.4 24.4 0 0 1-3.974-.587z" fill="#434343"/><path d="m215.785 260.211-5.858 1.465 5.858.488v.488q-2.014.039-4.028.061l-1.15.024c-3.476.03-3.476.03-5.075-1.062 1.952-.976 3.358-1.564 5.553-1.77l1.415-.142c1.332-.04 1.332-.04 3.285.448" fill="#616161"/><path d="m697.64 248.983 3.417.488v1.465c-1.601.801-3.372.547-5.13.536l-1.243-.002q-1.97-.005-3.94-.015l-2.668-.007q-3.273-.008-6.547-.024v-.488l17.575-.488v-.976z" fill="#BDBDBD"/><path d="M462.327 382.75c.727.345 1.448.704 2.167 1.068l1.219.6c1.008.773 1.008.773 1.391 2.079l.105 1.135c-2.366-.382-4.578-1.171-6.835-1.953v-.488l2.929-.488z" fill="#646464"/><path d="m669.324 263.629 3.906.488v1.465c-4.674.107-9.069 0-13.67-.976v-.488h9.764z" fill="#636363"/><path d="m315.378 247.03 4.394.488.488 1.953c-7.216.09-7.216.09-10.252-.488v-.488h5.858z" fill="#404040"/><path d="M496.013 318.307c-2.799 1.62-5.058 1.639-8.229 1.659-1.633.135-1.633.135-2.475 1.533l-.525 1.202c-.59-1.769-.265-2.266.488-3.906l1.675-.09 2.17-.124 1.104-.058c5.449-.319 5.449-.319 5.792-.216" fill="#6D6D6D"/><path d="M291.456 242.148h17.087v.488l-12.205.488.976.976c-4.184-.488-4.184-.488-5.858-.976z" fill="#919191"/><path d="M616.11 265.093h3.906v.488h-2.441v.976l1.953.488v1.465c-2.953.437-5.805.543-8.788.488v-.488l5.37-.976z" fill="#464646"/><path d="M478.438 371.521c1.221.641 1.221.641 2.441 1.465v1.465q-1.968-.104-3.936-.213l-1.113-.059a66 66 0 0 1-6.668-.705v-.488l9.276-.488z" fill="#4A4A4A"/><path d="M538.486 297.803c-1.002.779-1.95 1.463-3.082 2.045-1.916 1.292-3.268 3.016-4.73 4.79l-1.953-.488c.671-.732.671-.732 1.465-1.465h.976l.488-1.465c1.98-2.207 3.701-3.966 6.835-3.417" fill="#575757"/><path d="M678.6 252.888c4.986-.173 9.328.075 14.158 1.465v.488c-3.164.089-6.151-.254-9.276-.732l-1.428-.212q-1.727-.256-3.454-.52z" fill="#AAA"/><path d="M230.919 260.211h13.67l-.488.976c-1.222.309-1.222.309-2.715.549l-1.497.248-1.158.18.488-1.465h-8.299z" fill="#888"/><path d="m713.751 258.259 2.441.488v1.465q-2.957.018-5.915.027l-2.01.01q-1.448.009-2.897.011l-1.759.008a19.7 19.7 0 0 1-4.018-.545v-.488l15.134.488v-.976z" fill="#B6B6B6"/><path d="m603.417 244.101-2.441.976 2.441.488-.488.976h-5.37l.488-2.441c3.627-.628 3.627-.628 5.37 0" fill="#3F3F3F"/><path d="M610.74 239.219h16.111l-.488 1.465-2.929.488.976-.976-13.67-.488z" fill="#717171"/><path d="m550.203 292.433-.488.976c-1.584.402-3.178.689-4.784.988-1.693.517-2.396 1.087-3.515 2.43l-.976-.488c1.568-2.254 2.619-3.274 5.336-3.791 1.494-.169 2.925-.177 4.428-.114" fill="#565656"/><path d="M269.975 264.605h5.37v1.953l-3.417.488v-.976l-2.441-.488z" fill="#393939"/><path d="M673.718 257.282h15.622v.488l-11.229.488v.488h-3.906z" fill="#606060"/><path d="M662.001 261.676c2.895.57 5.56 1.345 8.299 2.441v.488h-6.835l.976-1.953-2.441-.488z" fill="#242424"/><path d="M628.804 266.558c-1.604.535-2.801.537-4.485.519l-1.608-.014-1.23-.017-.488 2.441h-4.394v-.488h3.417v-2.441q1.648-.143 3.295-.274l1.854-.155c1.39-.049 2.341-.013 3.639.429" fill="#E5E5E5"/><path d="M615.134 241.66v.488c-3.919 1.224-7.63 1.55-11.717 1.465 3.233-2.156 7.907-2.102 11.717-1.953" fill="#5D5D5D"/><path d="M463.303 363.222c.726.559.726.559 1.465 1.465.143 1.318.143 1.318.092 2.777l-.041 1.47-.051 1.123-2.441.976.484-.786c.621-1.473.588-2.625.553-4.218l-.027-1.594z" fill="#484848"/><path d="M408.625 275.834c2.367.259 4 .954 6.041 2.167l1.567.913 1.179.826v.976c-2.204-.659-4.063-1.546-6.041-2.715-.517-.303-1.035-.605-1.567-.918l-1.179-.761z" fill="#B0B0B0"/><path d="m698.616 263.629 2.929.488v.976q-2.623.04-5.248.061l-1.503.024-1.449.01-1.333.016c-1.207-.111-1.207-.111-3.16-1.087h9.764z" fill="#5A5A5A"/><path d="m257.194 262.557 1.614.034 1.621.027 1.247.034-.488 1.465-3.417.488v-.976h-2.929c.976-.976.976-.976 2.353-1.072" fill="#3F3F3F"/><path d="M661.025 260.7c2.515-.044 4.843.075 7.323.488l-1.465.976 2.441.976c-1.99.823-3.334.083-5.248-.702l-1.732-.7-1.319-.55z" fill="#989898"/><path d="M667.372 250.936h14.158v.488h-4.882v.976l-9.276-.976z" fill="#F1F1F1"/><path d="M442.311 386.167c0 1.465 0 1.465-.488 2.441l1.129-.518c1.311-.458 1.311-.458 2.776.03l-.837.393-1.085.522-1.081.515c-.982.458-.982.458-1.39 1.499h-1.465c.246-2.149 1.019-3.277 2.441-4.882" fill="#464646"/><path d="M453.539 383.238c2.405-.226 4.153.572 6.347 1.465-1.783.523-3.058.373-4.882 0v1.465h-.976l-.488 1.465z" fill="#494949"/><path d="M296.338 242.636a109 109 0 0 1 4.18.214l1.193.077q1.463.096 2.926.197v.976a385 385 0 0 1-3.57.061l-1.021.024c-1.839.018-2.627-.015-4.197-1.062z" fill="#0D0D0D"/><path d="M602.929 240.195v.488l-1.482.179-1.966.248-.972.116c-1.656.212-3.123.499-4.733.986-1.499.399-2.133.498-3.541-.065 4.198-1.788 8.17-2.037 12.693-1.953" fill="#5C5C5C"/><path d="M417.901 355.899h4.394l-.061 1.159c-.079 1.36-.079 1.36 1.037 2.258-1.159.061-1.159.061-2.441 0l-.976-.976v-1.953z" fill="#666"/><path d="M257.77 263.629v.976l-5.37.976v-.976h-2.929v-.488c2.766-.598 5.486-.533 8.299-.488" fill="#D6D6D6"/><path d="M463.303 372.986h.976a327 327 0 0 1-.976 7.323l1.465.488-1.953.488-.488-5.37h.976z" fill="#4A4A4A"/><path d="m455.98 365.663.488 1.465h1.953c.222 2.779-.201 4.171-1.953 6.347h-.488v-2.929l1.465-.488.488-2.441-1.953.488z" fill="#6A6A6A"/><path d="m503.336 341.253 9.764.488v1.953h-.976v-.976l-1.055-.09c-2.592-.227-5.162-.487-7.733-.887z" fill="#9B9B9B"/><path d="M414.971 344.67c-1.162 1.162-4.082.715-5.654.791-1.495.166-2.363.379-3.621 1.161l-.976-1.465c1.654-.551 3.114-.666 4.852-.793l1.813-.142c1.359-.034 2.315.02 3.587.447" fill="#424242"/><path d="m450.244 385.557 1.343.122v2.441l1.465.488-2.441-.488-.488-1.465-3.417.976c1.177-1.448 1.634-1.928 3.539-2.075" fill="#797979"/><path d="M471.603 368.104h.976l.488 1.953 1.678.183 1.74.305.488.976q-1.068.039-2.136.061l-1.201.034c-1.057-.095-1.057-.095-2.033-1.071-.061-1.282-.061-1.282 0-2.441" fill="#414141"/><path d="M476.973 356.875h3.417v.976l-1.129.336c-1.582.772-1.972 1.552-2.777 3.082h-.488v-2.441h.976z" fill="#CACACA"/><path d="M369.08 295.362c2.481-.085 4.55-.138 6.835.976l.488 1.953-7.323-2.441z" fill="#474747"/><path d="m608.391 243.582 1.607.013 1.23.017v.488c-2.663.676-5.061 1.094-7.811.976.975-1.95 3.052-1.516 4.974-1.495" fill="#EBEBEB"/><path d="m442.311 389.097 1.953.488c-1.068 1.251-1.068 1.251-2.441 2.441-1.373-.091-1.373-.091-2.441-.488l.488-1.953v1.465h1.465z" fill="#C2C2C2"/><path d="M454.027 374.939h.976l-.158.91-.178 1.196-.188 1.184c-.075 1.151-.075 1.151.759 1.98l.742.588c-2.38-.427-2.38-.427-2.929-.976-.175-3.155-.175-3.155.976-4.882" fill="#333"/><path d="M232.872 263.629c-2.256 1.083-3.792 1.652-6.347 1.465v-.976a152 152 0 0 1 2.075-.518l1.167-.292c1.203-.173 1.961-.053 3.105.322" fill="#464646"/><path d="M643.45 261.676h3.906l.488.976h-3.417v1.465l-1.465-.488z" fill="#212121"/><path d="M476.485 355.411c1.221.153 1.221.153 2.441.488l.488.976h-2.441v1.953h-.976a70 70 0 0 1 0-2.929z" fill="#3C3C3C"/><path d="M469.65 291.456c-.488.976-.488.976-1.495 1.526-1.858.553-3.405.493-5.34.427 1.285-.696 2.609-1.262 3.967-1.8l1.011-.403c.881-.238.881-.238 1.857.25" fill="#5C5C5C"/><path d="M665.419 261.676h4.882l.976 1.953a29.4 29.4 0 0 1-5.858-1.465z" fill="#D9D9D9"/><path d="M671.277 264.117h1.953v1.465h-7.811v-.488h5.858z" fill="#9A9A9A"/><path d="M242.148 259.723h4.882l-.488 1.465-3.906.488 1.465-.976z" fill="#2F2F2F"/><path d="M587.307 275.346c.95-.143.95-.143 2.014-.091l1.891.091v.488l-1.617.397c-1.737.559-2.093.819-3.265 2.044-1.312.336-1.312.336-2.441.488.488-.976.488-.976 1.434-1.434 1.163-.496 1.163-.496 1.983-1.984" fill="#E9E9E9"/><path d="M296.338 268.023h5.858v1.465h-.976v.976l-1.953-.488h1.465v-1.465h-4.394z" fill="#6C6C6C"/><path d="m676.647 247.03 6.835.488v.488q-1.175.124-2.349.244l-1.322.137c-1.211.108-1.211.108-2.675.108l.488-.976z" fill="#272727"/><path d="M680.553 258.259h6.347l-.488 1.465-5.858-.976z" fill="#F8F8F8"/><path d="M455.004 374.939c.446 1.507.488 2.83.488 4.394l.488.976-1.953-.976c-.122-2.746-.122-2.746.976-4.394" fill="#B8B8B8"/><path d="M475.508 358.828h.488c.144 2.452-.007 3.854-1.465 5.858-.637-1.274-.382-1.833-.061-3.204l.271-1.192c.279-.974.279-.974.767-1.462" fill="#535353"/><path d="m664.931 250.447.976 1.465q-1.068.039-2.136.061l-1.201.034c-1.057-.095-1.057-.095-2.033-1.071 1.593-.531 2.726-.63 4.394-.488" fill="#8F8F8F"/><path d="m605.37 244.101-1.465.488.488.976h-3.906c1.553-1.701 2.652-2.157 4.882-1.465" fill="#AEAEAE"/><path d="M622.457 239.219h4.394l-.488 1.465-2.929.488.976-.976z" fill="#919191"/><path d="m532.14 301.709.976.488c-1.098 1.251-1.098 1.251-2.441 2.441-1.129-.091-1.129-.091-1.953-.488 1.033-1.136 1.977-1.883 3.417-2.441" fill="#9E9E9E"/><path d="M271.928 266.07v.976l-2.441.488v-.976l-1.465-.488c1.397-.698 2.409-.293 3.906 0" fill="#AFAFAF"/><path d="M433.523 323.189c1.465.976 1.465.976 1.715 1.926l.238 2.956c-1.365-1.01-1.478-1.535-1.8-3.265z" fill="#616161"/><path d="M404.231 273.393c1.496-.124 2.261-.107 3.57.671l.824.793v.976c-1.689-.61-3.001-1.306-4.394-2.441" fill="#C8C8C8"/><path d="M658.584 260.211h4.882l-1.465 1.465c-1.526-.091-1.526-.091-2.929-.488z" fill="#595959"/><path d="m315.378 247.03 2.929.976v.976h-4.394l1.953-.488z" fill="#9A9A9A"/><path d="M461.839 380.309h.976v.976l.976.488c-2.644.6-2.644.6-4.089.031l-.793-.519h2.929z" fill="#C6C6C6"/></svg>